<?xml version="1.0" encoding="utf-8" ?>
<svg baseProfile="tiny" height="100%" version="1.2" width="100%" xmlns="http://www.w3.org/2000/svg" xmlns:ev="http://www.w3.org/2001/xml-events" xmlns:xlink="http://www.w3.org/1999/xlink"><defs /><path d="M 220,363 Z" fill="none" stroke="black" stroke-width="2" /><path d="M 87,363 Z" fill="none" stroke="black" stroke-width="2" /><path d="M 263,361 Z" fill="none" stroke="black" stroke-width="2" /><path d="M 44,361 Z" fill="none" stroke="black" stroke-width="2" /><path d="M 206,354 201,359 201,360 195,366 194,366 193,365 193,364 192,364 184,356 183,356 180,359 180,360 174,366 174,368 175,368 179,372 179,373 180,374 181,374 183,376 184,376 185,377 186,377 196,387 197,387 200,384 200,383 202,381 202,380 207,375 207,374 215,366 215,365 216,364 216,363 212,359 211,359 Z" fill="none" stroke="black" stroke-width="2" /><path d="M 101,354 96,359 95,359 91,363 91,364 92,365 92,366 100,374 100,375 105,380 105,381 107,383 107,384 110,387 111,387 121,377 122,377 123,376 124,376 126,374 127,374 128,373 128,372 132,368 133,368 133,366 127,360 127,359 124,356 123,356 115,364 114,364 114,365 113,366 112,366 106,360 106,359 Z" fill="none" stroke="black" stroke-width="2" /><path d="M 282,316 281,317 281,318 276,323 276,324 275,325 275,326 280,331 281,331 284,334 284,333 291,326 291,325 292,324 290,322 289,322 283,316 Z" fill="none" stroke="black" stroke-width="2" /><path d="M 24,316 18,322 17,322 15,324 16,325 16,326 23,333 23,334 26,331 27,331 32,326 32,325 31,324 31,323 26,318 26,317 25,316 Z" fill="none" stroke="black" stroke-width="2" /><path d="M 148,314 141,321 140,321 139,322 139,323 142,326 142,327 148,333 148,334 149,334 150,333 150,332 153,329 154,329 157,332 157,333 158,334 159,334 159,333 165,327 165,326 168,323 168,322 167,321 166,321 159,314 157,314 156,315 156,316 154,318 153,318 151,316 151,315 150,314 Z" fill="none" stroke="black" stroke-width="2" /><path d="M 295,300 Z" fill="none" stroke="black" stroke-width="2" /><path d="M 12,300 Z" fill="none" stroke="black" stroke-width="2" /><path d="M 281,293 278,296 277,296 274,299 274,300 272,302 272,303 277,308 278,308 282,312 284,310 284,309 290,303 290,301 289,300 288,300 Z" fill="none" stroke="black" stroke-width="2" /><path d="M 26,293 19,300 18,300 17,301 17,303 23,309 23,310 25,312 29,308 30,308 35,303 35,302 33,300 33,299 30,296 29,296 Z" fill="none" stroke="black" stroke-width="2" /><path d="M 150,291 147,294 146,294 140,300 144,304 144,305 150,311 153,308 154,308 157,311 163,305 163,304 167,300 161,294 160,294 157,291 156,291 154,293 153,293 151,291 Z" fill="none" stroke="black" stroke-width="2" /><path d="M 292,279 Z" fill="none" stroke="black" stroke-width="2" /><path d="M 15,279 Z" fill="none" stroke="black" stroke-width="2" /><path d="M 151,269 150,270 149,270 144,275 143,275 142,276 141,276 141,278 146,283 146,284 149,287 150,287 151,288 152,287 155,287 156,288 157,287 158,287 161,284 161,283 166,278 166,276 165,276 164,275 163,275 158,270 157,270 156,269 155,269 154,270 153,270 152,269 Z" fill="none" stroke="black" stroke-width="2" /><path d="M 266,261 263,264 263,265 258,270 260,272 260,273 261,273 267,279 268,279 275,286 276,286 280,290 280,289 286,283 286,282 289,279 288,279 284,275 283,275 277,269 276,269 268,261 Z" fill="none" stroke="black" stroke-width="2" /><path d="M 39,261 31,269 30,269 24,275 23,275 19,279 18,279 21,282 21,283 27,289 27,290 31,286 32,286 39,279 40,279 46,273 47,273 47,272 49,270 44,265 44,264 41,261 Z" fill="none" stroke="black" stroke-width="2" /><path d="M 153,246 143,256 148,261 148,262 152,266 155,266 159,262 159,261 164,256 154,246 Z" fill="none" stroke="black" stroke-width="2" /><path d="M 97,83 86,94 85,94 83,96 82,96 77,101 76,101 75,102 80,107 80,108 85,113 84,114 84,115 78,121 77,121 74,124 74,125 77,128 77,129 82,134 82,135 83,136 83,137 80,140 79,140 75,144 74,144 72,146 72,148 74,150 74,151 78,155 78,156 81,159 81,160 76,165 75,165 70,170 75,175 75,176 80,181 80,183 79,184 78,184 71,191 70,191 69,192 69,193 70,194 70,195 72,197 72,198 78,204 78,206 73,211 72,211 68,215 68,216 70,218 70,219 75,224 75,225 77,227 77,228 71,234 70,234 65,239 71,245 71,246 79,254 79,255 85,261 85,263 83,265 82,265 78,269 77,269 75,271 75,273 77,275 77,276 83,282 83,283 84,284 84,285 82,287 81,287 76,292 75,292 73,294 73,295 74,296 74,297 80,303 80,304 86,310 86,311 92,317 92,318 98,324 98,325 103,330 109,324 110,324 114,320 115,320 118,323 118,324 125,331 125,332 130,327 131,327 135,323 135,322 128,315 128,314 125,311 125,310 128,307 129,307 133,303 134,303 137,300 136,299 136,298 126,288 126,287 123,284 123,283 117,277 117,275 121,271 122,271 124,269 125,269 128,266 128,265 121,258 121,257 118,254 122,250 123,250 129,244 130,244 136,238 137,238 153,222 154,222 170,238 171,238 177,244 178,244 184,250 185,250 189,254 186,257 186,258 179,265 179,266 182,269 183,269 185,271 186,271 190,275 190,277 184,283 184,284 181,287 181,288 171,298 171,299 170,300 173,303 174,303 178,307 179,307 182,310 182,311 179,314 179,315 172,322 172,323 176,327 177,327 182,332 182,331 189,324 189,323 192,320 193,320 197,324 198,324 204,330 209,325 209,324 215,318 215,317 221,311 221,310 227,304 227,303 233,297 233,296 234,295 234,294 232,292 231,292 226,287 225,287 223,285 223,284 224,283 224,282 230,276 230,275 232,273 232,271 230,269 229,269 225,265 224,265 222,263 222,261 228,255 228,254 236,246 236,245 242,239 237,234 236,234 230,228 230,227 232,225 232,224 237,219 237,218 239,216 239,215 235,211 234,211 229,206 229,204 235,198 235,197 237,195 237,194 238,193 238,192 237,191 236,191 229,184 228,184 227,183 227,181 232,176 232,175 237,170 232,165 231,165 226,160 226,159 229,156 229,155 233,151 233,150 235,148 235,146 233,144 232,144 228,140 227,140 224,137 224,136 225,135 225,134 230,129 230,128 233,125 233,124 230,121 229,121 223,115 223,114 222,113 227,108 227,107 232,102 231,101 230,101 225,96 224,96 222,94 221,94 210,83 203,90 203,91 199,95 195,91 194,91 188,85 187,85 182,90 182,91 177,96 176,96 166,86 165,86 161,90 161,91 156,96 156,97 155,98 152,98 151,97 151,96 146,91 146,90 142,86 141,86 131,96 130,96 125,91 125,90 120,85 119,85 113,91 112,91 108,95 104,91 104,90 Z" fill="none" stroke="black" stroke-width="2" /><path d="M 227,74 229,76 Z" fill="none" stroke="black" stroke-width="2" /><path d="M 80,74 78,76 Z" fill="none" stroke="black" stroke-width="2" /><path d="M 222,70 Z" fill="none" stroke="black" stroke-width="2" /><path d="M 85,70 Z" fill="none" stroke="black" stroke-width="2" /><path d="M 182,40 178,44 177,44 176,45 176,46 173,49 173,50 180,57 181,57 185,61 186,61 193,68 194,68 196,70 197,70 198,71 199,71 204,76 205,76 209,80 210,79 210,78 215,73 215,72 217,70 217,69 216,69 210,63 209,63 206,60 206,59 202,55 201,55 195,49 194,49 189,44 188,44 184,40 Z" fill="none" stroke="black" stroke-width="2" /><path d="M 123,40 119,44 118,44 113,49 112,49 106,55 105,55 101,59 101,60 98,63 97,63 91,69 90,69 90,70 92,72 92,73 97,78 97,79 98,80 102,76 103,76 108,71 109,71 110,70 111,70 113,68 114,68 121,61 122,61 126,57 127,57 134,50 134,49 131,46 131,45 130,44 129,44 125,40 Z" fill="none" stroke="black" stroke-width="2" /><path d="M 171,30 170,31 170,32 163,39 163,40 167,44 168,44 169,45 166,42 165,42 164,41 165,40 166,40 167,39 168,39 167,38 167,37 166,36 171,31 174,34 174,35 175,34 Z" fill="none" stroke="black" stroke-width="2" /><path d="M 136,30 132,34 133,35 133,34 136,31 141,36 140,37 140,38 139,39 140,39 141,40 142,40 143,41 142,42 141,42 138,45 139,44 140,44 144,40 144,39 137,32 137,31 Z" fill="none" stroke="black" stroke-width="2" /></svg>